
<svg width="978px" height="440px" viewBox="0 0 978 440" version="1.1" xmlns="http://www.w3.org/2000/svg" xmlns:xlink="http://www.w3.org/1999/xlink">
    <!-- Generator: Sketch 43.2 (39069) - http://www.bohemiancoding.com/sketch -->
    <desc>Created with Sketch.</desc>
    <defs>
        <filter x="-6.9%" y="-12.2%" width="113.7%" height="134.1%" filterUnits="objectBoundingBox" id="filter-1">
            <feOffset dx="0" dy="2" in="SourceAlpha" result="shadowOffsetOuter1"></feOffset>
            <feGaussianBlur stdDeviation="2" in="shadowOffsetOuter1" result="shadowBlurOuter1"></feGaussianBlur>
            <feColorMatrix values="0 0 0 0 0   0 0 0 0 0   0 0 0 0 0  0 0 0 0.5 0" type="matrix" in="shadowBlurOuter1" result="shadowMatrixOuter1"></feColorMatrix>
            <feMerge>
                <feMergeNode in="shadowMatrixOuter1"></feMergeNode>
                <feMergeNode in="SourceGraphic"></feMergeNode>
            </feMerge>
        </filter>
        <rect id="path-2" x="0" y="0" width="102" height="41"></rect>
        <filter x="-5.9%" y="-8.8%" width="111.9%" height="124.6%" filterUnits="objectBoundingBox" id="filter-3">
            <feOffset dx="0" dy="2" in="SourceAlpha" result="shadowOffsetOuter1"></feOffset>
            <feGaussianBlur stdDeviation="2" in="shadowOffsetOuter1" result="shadowBlurOuter1"></feGaussianBlur>
            <feColorMatrix values="0 0 0 0 0   0 0 0 0 0   0 0 0 0 0  0 0 0 0.5 0" type="matrix" in="shadowBlurOuter1" result="shadowMatrixOuter1"></feColorMatrix>
            <feMerge>
                <feMergeNode in="shadowMatrixOuter1"></feMergeNode>
                <feMergeNode in="SourceGraphic"></feMergeNode>
            </feMerge>
        </filter>
        <rect id="path-4" x="0" y="0" width="102" height="41"></rect>
        <rect id="path-5" x="0" y="0" width="102" height="41"></rect>
        <rect id="path-6" x="0" y="0" width="102" height="41"></rect>
        <rect id="path-7" x="0" y="0" width="102" height="41"></rect>
        <rect id="path-8" x="0" y="0" width="102" height="41"></rect>
        <filter x="-6.9%" y="-12.2%" width="113.7%" height="134.1%" filterUnits="objectBoundingBox" id="filter-9">
            <feOffset dx="0" dy="2" in="SourceAlpha" result="shadowOffsetOuter1"></feOffset>
            <feGaussianBlur stdDeviation="2" in="shadowOffsetOuter1" result="shadowBlurOuter1"></feGaussianBlur>
            <feColorMatrix values="0 0 0 0 0   0 0 0 0 0   0 0 0 0 0  0 0 0 0.5 0" type="matrix" in="shadowBlurOuter1" result="shadowMatrixOuter1"></feColorMatrix>
            <feMerge>
                <feMergeNode in="shadowMatrixOuter1"></feMergeNode>
                <feMergeNode in="SourceGraphic"></feMergeNode>
            </feMerge>
        </filter>
        <rect id="path-10" x="0" y="0" width="102" height="41"></rect>
        <path d="M484.72778,37.0458135 C484.72778,37.0458135 479.828483,21.749145 489.953596,16.5334246 C500.078708,11.3177042 508.781713,24.5367443 508.781713,24.5367443 C508.781713,24.5367443 507.283656,1.23359163 526.772455,3.107217 C546.261254,4.98084236 542.063072,30.4949954 542.063072,30.4949954 C542.063072,30.4949954 558.763998,20.9258127 565.419385,39.0687502 C572.074773,57.2116877 558.207413,65.2465385 546.261254,67.1520839 C534.315094,69.0576293 488.73751,73.1635643 471.212634,66.1204456 C453.687758,59.0773268 450.17044,37.9917721 461.636631,31.6781179 C473.102823,25.3644637 484.72778,37.0458135 484.72778,37.0458135 Z" id="path-11"></path>
        <filter x="-6.7%" y="-8.2%" width="113.4%" height="122.4%" filterUnits="objectBoundingBox" id="filter-12">
            <feMorphology radius="0.5" operator="dilate" in="SourceAlpha" result="shadowSpreadOuter1"></feMorphology>
            <feOffset dx="0" dy="2" in="shadowSpreadOuter1" result="shadowOffsetOuter1"></feOffset>
            <feGaussianBlur stdDeviation="2" in="shadowOffsetOuter1" result="shadowBlurOuter1"></feGaussianBlur>
            <feComposite in="shadowBlurOuter1" in2="SourceAlpha" operator="out" result="shadowBlurOuter1"></feComposite>
            <feColorMatrix values="0 0 0 0 0   0 0 0 0 0   0 0 0 0 0  0 0 0 0.5 0" type="matrix" in="shadowBlurOuter1"></feColorMatrix>
        </filter>
        <filter x="-7.8%" y="-9.0%" width="115.7%" height="122.4%" filterUnits="objectBoundingBox" id="filter-13">
            <feOffset dx="0" dy="2" in="SourceAlpha" result="shadowOffsetOuter1"></feOffset>
            <feGaussianBlur stdDeviation="2" in="shadowOffsetOuter1" result="shadowBlurOuter1"></feGaussianBlur>
            <feColorMatrix values="0 0 0 0 0   0 0 0 0 0   0 0 0 0 0  0 0 0 0.5 0" type="matrix" in="shadowBlurOuter1" result="shadowMatrixOuter1"></feColorMatrix>
            <feMerge>
                <feMergeNode in="shadowMatrixOuter1"></feMergeNode>
                <feMergeNode in="SourceGraphic"></feMergeNode>
            </feMerge>
        </filter>
        <path d="M101.930575,59.3670886 L102,59.3670886 L102,7.63291139 L0,7.63291139 L0,59.3670886 L0.0694247359,59.3670886 C1.46524889,63.6197078 23.7338547,67 51,67 C78.2661453,67 100.534751,63.6197078 101.930575,59.3670886 Z" id="path-14"></path>
        <filter x="-7.8%" y="-9.0%" width="115.7%" height="122.4%" filterUnits="objectBoundingBox" id="filter-15">
            <feOffset dx="0" dy="2" in="SourceAlpha" result="shadowOffsetOuter1"></feOffset>
            <feGaussianBlur stdDeviation="2" in="shadowOffsetOuter1" result="shadowBlurOuter1"></feGaussianBlur>
            <feColorMatrix values="0 0 0 0 0   0 0 0 0 0   0 0 0 0 0  0 0 0 0.5 0" type="matrix" in="shadowBlurOuter1" result="shadowMatrixOuter1"></feColorMatrix>
            <feMerge>
                <feMergeNode in="shadowMatrixOuter1"></feMergeNode>
                <feMergeNode in="SourceGraphic"></feMergeNode>
            </feMerge>
        </filter>
        <path d="M101.930575,59.3670886 L102,59.3670886 L102,7.63291139 L0,7.63291139 L0,59.3670886 L0.0694247359,59.3670886 C1.46524889,63.6197078 23.7338547,67 51,67 C78.2661453,67 100.534751,63.6197078 101.930575,59.3670886 Z" id="path-16"></path>
        <filter x="-7.8%" y="-9.0%" width="115.7%" height="122.4%" filterUnits="objectBoundingBox" id="filter-17">
            <feOffset dx="0" dy="2" in="SourceAlpha" result="shadowOffsetOuter1"></feOffset>
            <feGaussianBlur stdDeviation="2" in="shadowOffsetOuter1" result="shadowBlurOuter1"></feGaussianBlur>
            <feColorMatrix values="0 0 0 0 0   0 0 0 0 0   0 0 0 0 0  0 0 0 0.5 0" type="matrix" in="shadowBlurOuter1" result="shadowMatrixOuter1"></feColorMatrix>
            <feMerge>
                <feMergeNode in="shadowMatrixOuter1"></feMergeNode>
                <feMergeNode in="SourceGraphic"></feMergeNode>
            </feMerge>
        </filter>
        <path d="M101.930575,59.3670886 L102,59.3670886 L102,7.63291139 L0,7.63291139 L0,59.3670886 L0.0694247359,59.3670886 C1.46524889,63.6197078 23.7338547,67 51,67 C78.2661453,67 100.534751,63.6197078 101.930575,59.3670886 Z" id="path-18"></path>
        <filter x="-7.8%" y="-9.0%" width="115.7%" height="122.4%" filterUnits="objectBoundingBox" id="filter-19">
            <feOffset dx="0" dy="2" in="SourceAlpha" result="shadowOffsetOuter1"></feOffset>
            <feGaussianBlur stdDeviation="2" in="shadowOffsetOuter1" result="shadowBlurOuter1"></feGaussianBlur>
            <feColorMatrix values="0 0 0 0 0   0 0 0 0 0   0 0 0 0 0  0 0 0 0.5 0" type="matrix" in="shadowBlurOuter1" result="shadowMatrixOuter1"></feColorMatrix>
            <feMerge>
                <feMergeNode in="shadowMatrixOuter1"></feMergeNode>
                <feMergeNode in="SourceGraphic"></feMergeNode>
            </feMerge>
        </filter>
        <path d="M101.930575,59.3670886 L102,59.3670886 L102,7.63291139 L0,7.63291139 L0,59.3670886 L0.0694247359,59.3670886 C1.46524889,63.6197078 23.7338547,67 51,67 C78.2661453,67 100.534751,63.6197078 101.930575,59.3670886 Z" id="path-20"></path>
    </defs>
    <g id="Page-1" stroke="none" stroke-width="1" fill="none" fill-rule="evenodd">
        <path d="M511.5,215.5 L511.5,408.5" id="Line" stroke="#EBEBEB" stroke-width="3" stroke-linecap="square"></path>
        <g id="Aggregate" filter="url(#filter-1)" transform="translate(4.000000, 263.000000)">
            <g id="Rectangle">
                <use fill="#D8D8D8" fill-rule="evenodd" xlink:href="#path-2"></use>
                <rect stroke="#979797" stroke-width="1" x="0.5" y="0.5" width="101" height="40"></rect>
            </g>
            <text font-family="SFMono-Regular, SF Mono" font-size="12" font-weight="normal" fill="#000000">
                <tspan x="18.1191406" y="24">Aggregate</tspan>
            </text>
        </g>
        <g id="Group-3" filter="url(#filter-3)" transform="translate(455.000000, 290.000000)">
            <g id="Group" transform="translate(16.000000, 0.000000)">
                <g id="Rectangle">
                    <use fill="#D8D8D8" fill-rule="evenodd" xlink:href="#path-4"></use>
                    <rect stroke="#979797" stroke-width="1" x="0.5" y="0.5" width="101" height="40"></rect>
                </g>
                <text id="Domain-event" font-family="SFMono-Regular, SF Mono" font-size="12" font-weight="normal" fill="#000000">
                    <tspan x="6.4921875" y="24">Domain event</tspan>
                </text>
            </g>
            <g id="Group" transform="translate(12.000000, 4.000000)">
                <g id="Rectangle">
                    <use fill="#D8D8D8" fill-rule="evenodd" xlink:href="#path-5"></use>
                    <rect stroke="#979797" stroke-width="1" x="0.5" y="0.5" width="101" height="40"></rect>
                </g>
                <text id="Domain-event" font-family="SFMono-Regular, SF Mono" font-size="12" font-weight="normal" fill="#000000">
                    <tspan x="6.4921875" y="24">Domain event</tspan>
                </text>
            </g>
            <g id="Group" transform="translate(8.000000, 8.000000)">
                <g id="Rectangle">
                    <use fill="#D8D8D8" fill-rule="evenodd" xlink:href="#path-6"></use>
                    <rect stroke="#979797" stroke-width="1" x="0.5" y="0.5" width="101" height="40"></rect>
                </g>
                <text id="Domain-event" font-family="SFMono-Regular, SF Mono" font-size="12" font-weight="normal" fill="#000000">
                    <tspan x="6.4921875" y="24">Domain event</tspan>
                </text>
            </g>
            <g id="Group" transform="translate(4.000000, 12.000000)">
                <g id="Rectangle">
                    <use fill="#D8D8D8" fill-rule="evenodd" xlink:href="#path-7"></use>
                    <rect stroke="#979797" stroke-width="1" x="0.5" y="0.5" width="101" height="40"></rect>
                </g>
                <text id="Domain-event" font-family="SFMono-Regular, SF Mono" font-size="12" font-weight="normal" fill="#000000">
                    <tspan x="6.4921875" y="24">Domain event</tspan>
                </text>
            </g>
            <g id="Group" transform="translate(0.000000, 16.000000)">
                <g id="Rectangle">
                    <use fill="#D8D8D8" fill-rule="evenodd" xlink:href="#path-8"></use>
                    <rect stroke="#979797" stroke-width="1" x="0.5" y="0.5" width="101" height="40"></rect>
                </g>
                <text id="Domain-event" font-family="SFMono-Regular, SF Mono" font-size="12" font-weight="normal" fill="#000000">
                    <tspan x="6.4921875" y="24">Domain event</tspan>
                </text>
            </g>
        </g>
        <g id="Command" filter="url(#filter-9)" transform="translate(175.000000, 160.000000)">
            <g id="Rectangle">
                <use fill="#D8D8D8" fill-rule="evenodd" xlink:href="#path-10"></use>
                <rect stroke="#979797" stroke-width="1" x="0.5" y="0.5" width="101" height="40"></rect>
            </g>
            <text font-family="SFMono-Regular, SF Mono" font-size="12" font-weight="normal" fill="#000000">
                <tspan x="25.0371094" y="24">Command</tspan>
            </text>
        </g>
        <text id="Rails-controller" font-family="SFMono-Regular, SF Mono" font-size="12" font-weight="normal" fill="#000000">
            <tspan x="451.15625" y="153">Rails controller</tspan>
        </text>
        <text id="CommandHandler" font-family="SFMono-Regular, SF Mono" font-size="12" font-weight="normal" fill="#000000">
            <tspan x="182.074219" y="287">CommandHandler</tspan>
        </text>
        <text id="Editor" font-family="SFMono-Regular, SF Mono" font-size="12" font-weight="normal" fill="#000000">
            <tspan x="656.246094" y="260">Editor</tspan>
        </text>
        <text id="Consume" font-family="SFMono-Regular, SF Mono" font-size="12" font-weight="normal" fill="#000000">
            <tspan x="656.037109" y="303">Consume</tspan>
        </text>
        <text id="…" transform="translate(666.500000, 334.500000) rotate(90.000000) translate(-666.500000, -334.500000) " font-family="Georgia" font-size="18" font-weight="normal" fill="#000000">
            <tspan x="659" y="341">…</tspan>
        </text>
        <text id="Internal-reporting" font-family="SFMono-Regular, SF Mono" font-size="12" font-weight="normal" fill="#000000">
            <tspan x="656.238281" y="370">Internal reporting</tspan>
        </text>
        <g id="Path-2">
            <use fill="black" fill-opacity="1" filter="url(#filter-12)" xlink:href="#path-11"></use>
            <use stroke="#979797" stroke-width="1" fill="#D8D8D8" fill-rule="evenodd" xlink:href="#path-11"></use>
        </g>
        <g id="Event-store" filter="url(#filter-13)" transform="translate(173.000000, 367.000000)">
            <g id="Rectangle-2">
                <use fill="#D8D8D8" fill-rule="evenodd" xlink:href="#path-14"></use>
                <path stroke="#979797" stroke-width="1" d="M101.5,59.0756159 L101.455511,59.2111597 C100.16693,63.137044 77.8150659,66.5 51,66.5 C24.1849341,66.5 1.83307007,63.137044 0.544489121,59.2111597 L0.5,59.0756159 L0.5,8.13291139 L101.5,8.13291139 L101.5,59.0756159 Z"></path>
            </g>
            <ellipse id="Oval" stroke="#979797" fill="#D8D8D8" cx="51" cy="8.05696203" rx="51" ry="8.05696203"></ellipse>
            <text font-family="SFMono-Regular, SF Mono" font-size="12" font-weight="normal" fill="#000000">
                <tspan x="10.7011719" y="40">Event store</tspan>
            </text>
        </g>
        <g id="Group-2" transform="translate(859.000000, 162.000000)">
            <g id="Read-model" filter="url(#filter-15)" transform="translate(12.000000, 0.000000)">
                <g id="Rectangle-2">
                    <use fill="#D8D8D8" fill-rule="evenodd" xlink:href="#path-16"></use>
                    <path stroke="#979797" stroke-width="1" d="M101.5,59.0756159 L101.455511,59.2111597 C100.16693,63.137044 77.8150659,66.5 51,66.5 C24.1849341,66.5 1.83307007,63.137044 0.544489121,59.2111597 L0.5,59.0756159 L0.5,8.13291139 L101.5,8.13291139 L101.5,59.0756159 Z"></path>
                </g>
                <ellipse id="Oval" stroke="#979797" fill="#D8D8D8" cx="51" cy="8.05696203" rx="51" ry="8.05696203"></ellipse>
                <text font-family="SFMono-Regular, SF Mono" font-size="12" font-weight="normal" fill="#000000">
                    <tspan x="13.9101562" y="40">Read model</tspan>
                </text>
            </g>
            <g id="Read-model" filter="url(#filter-17)" transform="translate(6.000000, 6.000000)">
                <g id="Rectangle-2">
                    <use fill="#D8D8D8" fill-rule="evenodd" xlink:href="#path-18"></use>
                    <path stroke="#979797" stroke-width="1" d="M101.5,59.0756159 L101.455511,59.2111597 C100.16693,63.137044 77.8150659,66.5 51,66.5 C24.1849341,66.5 1.83307007,63.137044 0.544489121,59.2111597 L0.5,59.0756159 L0.5,8.13291139 L101.5,8.13291139 L101.5,59.0756159 Z"></path>
                </g>
                <ellipse id="Oval" stroke="#979797" fill="#D8D8D8" cx="51" cy="8.05696203" rx="51" ry="8.05696203"></ellipse>
                <text font-family="SFMono-Regular, SF Mono" font-size="12" font-weight="normal" fill="#000000">
                    <tspan x="13.9101562" y="40">Read model</tspan>
                </text>
            </g>
            <g id="Read-model" filter="url(#filter-19)" transform="translate(0.000000, 12.000000)">
                <g id="Rectangle-2">
                    <use fill="#D8D8D8" fill-rule="evenodd" xlink:href="#path-20"></use>
                    <path stroke="#979797" stroke-width="1" d="M101.5,59.0756159 L101.455511,59.2111597 C100.16693,63.137044 77.8150659,66.5 51,66.5 C24.1849341,66.5 1.83307007,63.137044 0.544489121,59.2111597 L0.5,59.0756159 L0.5,8.13291139 L101.5,8.13291139 L101.5,59.0756159 Z"></path>
                </g>
                <ellipse id="Oval" stroke="#979797" fill="#D8D8D8" cx="51" cy="8.05696203" rx="51" ry="8.05696203"></ellipse>
                <text font-family="SFMono-Regular, SF Mono" font-size="12" font-weight="normal" fill="#000000">
                    <tspan x="13.9101562" y="40">Read model</tspan>
                </text>
            </g>
        </g>
        <g id="Line-+-Triangle" transform="translate(365.800628, 166.735821) rotate(169.000000) translate(-365.800628, -166.735821) translate(288.800628, 154.735821)" stroke="#A9A9A9" stroke-width="2">
            <path d="M-5.68434189e-14,12 L146.897198,12" id="Line"></path>
            <path d="M146.558993,9.61803399 L151.322925,12 L146.558993,14.381966 L146.558993,9.61803399 Z" id="Triangle"></path>
        </g>
        <g id="Line-+-Triangle" transform="translate(360.610263, 348.081060) rotate(343.000000) translate(-360.610263, -348.081060) translate(283.610263, 336.081060)" stroke="#A9A9A9" stroke-width="2">
            <path d="M-5.68434189e-14,12 L146.897198,12" id="Line"></path>
            <path d="M146.558993,9.61803399 L151.322925,12 L146.558993,14.381966 L146.558993,9.61803399 Z" id="Triangle"></path>
        </g>
        <g id="Line-+-Triangle" transform="translate(613.804346, 271.878154) rotate(339.000000) translate(-613.804346, -271.878154) translate(574.804346, 259.878154)" stroke="#A9A9A9" stroke-width="2">
            <path d="M-5.68434189e-14,12 L70.8971984,12" id="Line"></path>
            <path d="M70.7885581,9.61803399 L75.5524901,12 L70.7885581,14.381966 L70.7885581,9.61803399 Z" id="Triangle"></path>
        </g>
        <g id="Line-+-Triangle" transform="translate(774.850304, 235.213618) rotate(344.000000) translate(-774.850304, -235.213618) translate(707.850304, 223.213618)" stroke="#A9A9A9" stroke-width="2">
            <path d="M-5.68434189e-14,12 L126.897198,12" id="Line"></path>
            <path d="M126.619405,9.61803399 L131.383337,12 L126.619405,14.381966 L126.619405,9.61803399 Z" id="Triangle"></path>
        </g>
        <g id="Line-+-Triangle" transform="translate(783.117881, 267.239905) rotate(336.000000) translate(-783.117881, -267.239905) translate(713.117881, 255.239905)" stroke="#A9A9A9" stroke-width="2">
            <path d="M-5.68434189e-14,12 L133.242228,12" id="Line"></path>
            <path d="M132.945409,9.61803399 L137.709341,12 L132.945409,14.381966 L132.945409,9.61803399 Z" id="Triangle"></path>
        </g>
        <g id="Line-+-Triangle" transform="translate(829.517620, 306.467779) rotate(297.000000) translate(-829.517620, -306.467779) translate(762.517620, 294.467779)" stroke="#A9A9A9" stroke-width="2">
            <path d="M-5.68434189e-14,12 L127.242228,12" id="Line"></path>
            <path d="M126.94789,9.61803399 L131.711822,12 L126.94789,14.381966 L126.94789,9.61803399 Z" id="Triangle"></path>
        </g>
        <g id="Line-+-Triangle" transform="translate(714.279685, 164.947653) rotate(186.000000) translate(-714.279685, -164.947653) translate(583.279685, 152.947653)" stroke="#A9A9A9" stroke-width="2">
            <path d="M-5.68434189e-14,12 L255.313141,12" id="Line"></path>
            <path d="M254.965838,9.61803399 L259.72977,12 L254.965838,14.381966 L254.965838,9.61803399 Z" id="Triangle"></path>
        </g>
        <g id="Line-+-Triangle" transform="translate(614.456837, 352.209655) rotate(378.000000) translate(-614.456837, -352.209655) translate(575.456837, 340.209655)" stroke="#A9A9A9" stroke-width="2">
            <path d="M-5.68434189e-14,12 L70.8971984,12" id="Line"></path>
            <path d="M70.7885581,9.61803399 L75.5524901,12 L70.7885581,14.381966 L70.7885581,9.61803399 Z" id="Triangle"></path>
        </g>
        <g id="Line-+-Triangle" transform="translate(613.210890, 299.275303) rotate(359.000000) translate(-613.210890, -299.275303) translate(579.710890, 287.275303)" stroke="#A9A9A9" stroke-width="2">
            <path d="M-5.68434189e-14,12 L59.1861195,12" id="Line"></path>
            <path d="M59.1128536,9.61803399 L63.8767857,12 L59.1128536,14.381966 L59.1128536,9.61803399 Z" id="Triangle"></path>
        </g>
        <g id="Line-+-Triangle" transform="translate(227.022225, 240.900823) rotate(90.000000) translate(-227.022225, -240.900823) translate(197.522225, 228.900823)" stroke="#A9A9A9" stroke-width="2">
            <path d="M-5.68434189e-14,12 L51.4201964,12" id="Line"></path>
            <path d="M51.3703883,9.61803399 L56.1343203,12 L51.3703883,14.381966 L51.3703883,9.61803399 Z" id="Triangle"></path>
        </g>
        <g id="Group-4" transform="translate(227.000000, 329.000000) scale(-1, 1) translate(-227.000000, -329.000000) translate(188.000000, 300.000000)" stroke="#A9A9A9" stroke-width="2">
            <g id="Curved-Line-+-Triangle" transform="translate(23.990381, 30.552559) rotate(60.000000) translate(-23.990381, -30.552559) translate(1.990381, 15.552559)">
                <path d="M0,0 C0,27.6176471 37,25.9930796 37,25.9930796" id="Line"></path>
                <path d="M37,23.618034 L41.763932,26 L37,28.381966 L37,23.618034 Z" id="Triangle"></path>
            </g>
            <g id="Curved-Line-+-Triangle" transform="translate(53.122365, 26.841835) rotate(238.000000) translate(-53.122365, -26.841835) translate(31.122365, 11.841835)">
                <path d="M0,0 C0,27.6176471 37,25.9930796 37,25.9930796" id="Line"></path>
                <path d="M37,23.618034 L41.763932,26 L37,28.381966 L37,23.618034 Z" id="Triangle"></path>
            </g>
        </g>
        <g id="Group-4" transform="translate(471.000000, 81.000000)" stroke="#A9A9A9" stroke-width="2">
            <g id="Curved-Line-+-Triangle" transform="translate(23.990381, 30.552559) rotate(60.000000) translate(-23.990381, -30.552559) translate(1.990381, 15.552559)">
                <path d="M0,0 C0,27.6176471 37,25.9930796 37,25.9930796" id="Line"></path>
                <path d="M37,23.618034 L41.763932,26 L37,28.381966 L37,23.618034 Z" id="Triangle"></path>
            </g>
            <g id="Curved-Line-+-Triangle" transform="translate(53.122365, 26.841835) rotate(238.000000) translate(-53.122365, -26.841835) translate(31.122365, 11.841835)">
                <path d="M0,0 C0,27.6176471 37,25.9930796 37,25.9930796" id="Line"></path>
                <path d="M37,23.618034 L41.763932,26 L37,28.381966 L37,23.618034 Z" id="Triangle"></path>
            </g>
        </g>
        <g id="Group-4" transform="translate(143.593026, 282.973217) rotate(90.000000) translate(-143.593026, -282.973217) translate(104.593026, 253.973217)" stroke="#A9A9A9" stroke-width="2">
            <g id="Curved-Line-+-Triangle" transform="translate(23.990381, 30.552559) rotate(60.000000) translate(-23.990381, -30.552559) translate(1.990381, 15.552559)">
                <path d="M0,0 C0,27.6176471 37,25.9930796 37,25.9930796" id="Line"></path>
                <path d="M37,23.618034 L41.763932,26 L37,28.381966 L37,23.618034 Z" id="Triangle"></path>
            </g>
            <g id="Curved-Line-+-Triangle" transform="translate(53.122365, 26.841835) rotate(238.000000) translate(-53.122365, -26.841835) translate(31.122365, 11.841835)">
                <path d="M0,0 C0,27.6176471 37,25.9930796 37,25.9930796" id="Line"></path>
                <path d="M37,23.618034 L41.763932,26 L37,28.381966 L37,23.618034 Z" id="Triangle"></path>
            </g>
        </g>
        <text id="1" font-family="SFMono-Regular, SF Mono" font-size="12" font-weight="normal" fill="#A9A9A9">
            <tspan x="240" y="241">1</tspan>
        </text>
        <text id="2" font-family="SFMono-Regular, SF Mono" font-size="12" font-weight="normal" fill="#A9A9A9">
            <tspan x="188" y="334">2</tspan>
        </text>
        <text id="3" font-family="SFMono-Regular, SF Mono" font-size="12" font-weight="normal" fill="#A9A9A9">
            <tspan x="140" y="252">3</tspan>
        </text>
        <text id="4" font-family="SFMono-Regular, SF Mono" font-size="12" font-weight="normal" fill="#A9A9A9">
            <tspan x="136" y="322">4</tspan>
        </text>
        <text id="5" font-family="SFMono-Regular, SF Mono" font-size="12" font-weight="normal" fill="#A9A9A9">
            <tspan x="262" y="330">5</tspan>
        </text>
        <text id="6" font-family="SFMono-Regular, SF Mono" font-size="12" font-weight="normal" fill="#A9A9A9">
            <tspan x="342" y="345">6</tspan>
        </text>
    </g>
</svg>
