
<svg width="892px" height="516px" viewBox="0 0 892 516" version="1.1" xmlns="http://www.w3.org/2000/svg" xmlns:xlink="http://www.w3.org/1999/xlink">
    <!-- Generator: Sketch 43.2 (39069) - http://www.bohemiancoding.com/sketch -->
    <desc>Created with Sketch.</desc>
    <defs>
        <filter x="-6.9%" y="-12.2%" width="113.7%" height="134.1%" filterUnits="objectBoundingBox" id="filter-1">
            <feOffset dx="0" dy="2" in="SourceAlpha" result="shadowOffsetOuter1"></feOffset>
            <feGaussianBlur stdDeviation="2" in="shadowOffsetOuter1" result="shadowBlurOuter1"></feGaussianBlur>
            <feColorMatrix values="0 0 0 0 0   0 0 0 0 0   0 0 0 0 0  0 0 0 0.5 0" type="matrix" in="shadowBlurOuter1" result="shadowMatrixOuter1"></feColorMatrix>
            <feMerge>
                <feMergeNode in="shadowMatrixOuter1"></feMergeNode>
                <feMergeNode in="SourceGraphic"></feMergeNode>
            </feMerge>
        </filter>
        <rect id="path-2" x="0" y="0" width="102" height="41"></rect>
        <filter x="-5.9%" y="-8.8%" width="111.9%" height="124.6%" filterUnits="objectBoundingBox" id="filter-3">
            <feOffset dx="0" dy="2" in="SourceAlpha" result="shadowOffsetOuter1"></feOffset>
            <feGaussianBlur stdDeviation="2" in="shadowOffsetOuter1" result="shadowBlurOuter1"></feGaussianBlur>
            <feColorMatrix values="0 0 0 0 0   0 0 0 0 0   0 0 0 0 0  0 0 0 0.5 0" type="matrix" in="shadowBlurOuter1" result="shadowMatrixOuter1"></feColorMatrix>
            <feMerge>
                <feMergeNode in="shadowMatrixOuter1"></feMergeNode>
                <feMergeNode in="SourceGraphic"></feMergeNode>
            </feMerge>
        </filter>
        <rect id="path-4" x="0" y="0" width="102" height="41"></rect>
        <rect id="path-5" x="0" y="0" width="102" height="41"></rect>
        <rect id="path-6" x="0" y="0" width="102" height="41"></rect>
        <rect id="path-7" x="0" y="0" width="102" height="41"></rect>
        <rect id="path-8" x="0" y="0" width="102" height="41"></rect>
        <filter x="-6.9%" y="-12.2%" width="113.7%" height="134.1%" filterUnits="objectBoundingBox" id="filter-9">
            <feOffset dx="0" dy="2" in="SourceAlpha" result="shadowOffsetOuter1"></feOffset>
            <feGaussianBlur stdDeviation="2" in="shadowOffsetOuter1" result="shadowBlurOuter1"></feGaussianBlur>
            <feColorMatrix values="0 0 0 0 0   0 0 0 0 0   0 0 0 0 0  0 0 0 0.5 0" type="matrix" in="shadowBlurOuter1" result="shadowMatrixOuter1"></feColorMatrix>
            <feMerge>
                <feMergeNode in="shadowMatrixOuter1"></feMergeNode>
                <feMergeNode in="SourceGraphic"></feMergeNode>
            </feMerge>
        </filter>
        <rect id="path-10" x="0" y="0" width="102" height="41"></rect>
        <filter x="-7.8%" y="-9.0%" width="115.7%" height="122.4%" filterUnits="objectBoundingBox" id="filter-11">
            <feOffset dx="0" dy="2" in="SourceAlpha" result="shadowOffsetOuter1"></feOffset>
            <feGaussianBlur stdDeviation="2" in="shadowOffsetOuter1" result="shadowBlurOuter1"></feGaussianBlur>
            <feColorMatrix values="0 0 0 0 0   0 0 0 0 0   0 0 0 0 0  0 0 0 0.5 0" type="matrix" in="shadowBlurOuter1" result="shadowMatrixOuter1"></feColorMatrix>
            <feMerge>
                <feMergeNode in="shadowMatrixOuter1"></feMergeNode>
                <feMergeNode in="SourceGraphic"></feMergeNode>
            </feMerge>
        </filter>
        <path d="M101.930575,59.3670886 L102,59.3670886 L102,7.63291139 L0,7.63291139 L0,59.3670886 L0.0694247359,59.3670886 C1.46524889,63.6197078 23.7338547,67 51,67 C78.2661453,67 100.534751,63.6197078 101.930575,59.3670886 Z" id="path-12"></path>
        <filter x="-7.8%" y="-9.0%" width="115.7%" height="122.4%" filterUnits="objectBoundingBox" id="filter-13">
            <feOffset dx="0" dy="2" in="SourceAlpha" result="shadowOffsetOuter1"></feOffset>
            <feGaussianBlur stdDeviation="2" in="shadowOffsetOuter1" result="shadowBlurOuter1"></feGaussianBlur>
            <feColorMatrix values="0 0 0 0 0   0 0 0 0 0   0 0 0 0 0  0 0 0 0.5 0" type="matrix" in="shadowBlurOuter1" result="shadowMatrixOuter1"></feColorMatrix>
            <feMerge>
                <feMergeNode in="shadowMatrixOuter1"></feMergeNode>
                <feMergeNode in="SourceGraphic"></feMergeNode>
            </feMerge>
        </filter>
        <path d="M101.930575,59.3670886 L102,59.3670886 L102,7.63291139 L0,7.63291139 L0,59.3670886 L0.0694247359,59.3670886 C1.46524889,63.6197078 23.7338547,67 51,67 C78.2661453,67 100.534751,63.6197078 101.930575,59.3670886 Z" id="path-14"></path>
        <filter x="-7.8%" y="-9.0%" width="115.7%" height="122.4%" filterUnits="objectBoundingBox" id="filter-15">
            <feOffset dx="0" dy="2" in="SourceAlpha" result="shadowOffsetOuter1"></feOffset>
            <feGaussianBlur stdDeviation="2" in="shadowOffsetOuter1" result="shadowBlurOuter1"></feGaussianBlur>
            <feColorMatrix values="0 0 0 0 0   0 0 0 0 0   0 0 0 0 0  0 0 0 0.5 0" type="matrix" in="shadowBlurOuter1" result="shadowMatrixOuter1"></feColorMatrix>
            <feMerge>
                <feMergeNode in="shadowMatrixOuter1"></feMergeNode>
                <feMergeNode in="SourceGraphic"></feMergeNode>
            </feMerge>
        </filter>
        <path d="M101.930575,59.3670886 L102,59.3670886 L102,7.63291139 L0,7.63291139 L0,59.3670886 L0.0694247359,59.3670886 C1.46524889,63.6197078 23.7338547,67 51,67 C78.2661453,67 100.534751,63.6197078 101.930575,59.3670886 Z" id="path-16"></path>
        <filter x="-7.8%" y="-9.0%" width="115.7%" height="122.4%" filterUnits="objectBoundingBox" id="filter-17">
            <feOffset dx="0" dy="2" in="SourceAlpha" result="shadowOffsetOuter1"></feOffset>
            <feGaussianBlur stdDeviation="2" in="shadowOffsetOuter1" result="shadowBlurOuter1"></feGaussianBlur>
            <feColorMatrix values="0 0 0 0 0   0 0 0 0 0   0 0 0 0 0  0 0 0 0.5 0" type="matrix" in="shadowBlurOuter1" result="shadowMatrixOuter1"></feColorMatrix>
            <feMerge>
                <feMergeNode in="shadowMatrixOuter1"></feMergeNode>
                <feMergeNode in="SourceGraphic"></feMergeNode>
            </feMerge>
        </filter>
        <path d="M101.930575,59.3670886 L102,59.3670886 L102,7.63291139 L0,7.63291139 L0,59.3670886 L0.0694247359,59.3670886 C1.46524889,63.6197078 23.7338547,67 51,67 C78.2661453,67 100.534751,63.6197078 101.930575,59.3670886 Z" id="path-18"></path>
        <path d="M202.72778,36.4113708 C202.72778,36.4113708 197.828483,21.1147022 207.953596,15.8989819 C218.078708,10.6832615 226.781713,23.9023015 226.781713,23.9023015 C226.781713,23.9023015 225.283656,0.599148903 244.772455,2.47277427 C264.261254,4.34639963 260.063072,29.8605527 260.063072,29.8605527 C260.063072,29.8605527 276.763998,20.2913699 283.419385,38.4343074 C290.074773,56.5772449 276.207413,64.6120957 264.261254,66.5176412 C252.315094,68.4231866 206.73751,72.5291216 189.212634,65.4860028 C171.687758,58.4428841 168.17044,37.3573294 179.636631,31.0436752 C191.102823,24.730021 202.72778,36.4113708 202.72778,36.4113708 Z" id="path-19"></path>
        <filter x="-6.7%" y="-8.2%" width="113.4%" height="122.4%" filterUnits="objectBoundingBox" id="filter-20">
            <feMorphology radius="0.5" operator="dilate" in="SourceAlpha" result="shadowSpreadOuter1"></feMorphology>
            <feOffset dx="0" dy="2" in="shadowSpreadOuter1" result="shadowOffsetOuter1"></feOffset>
            <feGaussianBlur stdDeviation="2" in="shadowOffsetOuter1" result="shadowBlurOuter1"></feGaussianBlur>
            <feComposite in="shadowBlurOuter1" in2="SourceAlpha" operator="out" result="shadowBlurOuter1"></feComposite>
            <feColorMatrix values="0 0 0 0 0   0 0 0 0 0   0 0 0 0 0  0 0 0 0.5 0" type="matrix" in="shadowBlurOuter1"></feColorMatrix>
        </filter>
        <path d="M690.72778,46.0458135 C690.72778,46.0458135 685.828483,30.749145 695.953596,25.5334246 C706.078708,20.3177042 714.781713,33.5367443 714.781713,33.5367443 C714.781713,33.5367443 713.283656,10.2335916 732.772455,12.107217 C752.261254,13.9808424 748.063072,39.4949954 748.063072,39.4949954 C748.063072,39.4949954 764.763998,29.9258127 771.419385,48.0687502 C778.074773,66.2116877 764.207413,74.2465385 752.261254,76.1520839 C740.315094,78.0576293 694.73751,82.1635643 677.212634,75.1204456 C659.687758,68.0773268 656.17044,46.9917721 667.636631,40.6781179 C679.102823,34.3644637 690.72778,46.0458135 690.72778,46.0458135 Z" id="path-21"></path>
        <filter x="-6.7%" y="-8.2%" width="113.4%" height="122.4%" filterUnits="objectBoundingBox" id="filter-22">
            <feMorphology radius="0.5" operator="dilate" in="SourceAlpha" result="shadowSpreadOuter1"></feMorphology>
            <feOffset dx="0" dy="2" in="shadowSpreadOuter1" result="shadowOffsetOuter1"></feOffset>
            <feGaussianBlur stdDeviation="2" in="shadowOffsetOuter1" result="shadowBlurOuter1"></feGaussianBlur>
            <feComposite in="shadowBlurOuter1" in2="SourceAlpha" operator="out" result="shadowBlurOuter1"></feComposite>
            <feColorMatrix values="0 0 0 0 0   0 0 0 0 0   0 0 0 0 0  0 0 0 0.5 0" type="matrix" in="shadowBlurOuter1"></feColorMatrix>
        </filter>
    </defs>
    <g id="Page-1" stroke="none" stroke-width="1" fill="none" fill-rule="evenodd">
        <path d="M467.5,127.5 L467.5,484.5" id="Line" stroke="#EBEBEB" stroke-width="3" stroke-linecap="square"></path>
        <g id="Aggregate" filter="url(#filter-1)" transform="translate(4.000000, 339.000000)">
            <g id="Rectangle">
                <use fill="#D8D8D8" fill-rule="evenodd" xlink:href="#path-2"></use>
                <rect stroke="#979797" stroke-width="1" x="0.5" y="0.5" width="101" height="40"></rect>
            </g>
            <text font-family="HelveticaNeue, Helvetica Neue" font-size="12" font-weight="normal" fill="#000000">
                <tspan x="23.834" y="24">Aggregate</tspan>
            </text>
        </g>
        <g id="Group-3" filter="url(#filter-3)" transform="translate(411.000000, 366.000000)">
            <g id="Group" transform="translate(16.000000, 0.000000)">
                <g id="Rectangle">
                    <use fill="#D8D8D8" fill-rule="evenodd" xlink:href="#path-4"></use>
                    <rect stroke="#979797" stroke-width="1" x="0.5" y="0.5" width="101" height="40"></rect>
                </g>
                <text id="Domain-event" font-family="HelveticaNeue, Helvetica Neue" font-size="12" font-weight="normal" fill="#000000">
                    <tspan x="13.986" y="24">Domain event</tspan>
                </text>
            </g>
            <g id="Group" transform="translate(12.000000, 4.000000)">
                <g id="Rectangle">
                    <use fill="#D8D8D8" fill-rule="evenodd" xlink:href="#path-5"></use>
                    <rect stroke="#979797" stroke-width="1" x="0.5" y="0.5" width="101" height="40"></rect>
                </g>
                <text id="Domain-event" font-family="HelveticaNeue, Helvetica Neue" font-size="12" font-weight="normal" fill="#000000">
                    <tspan x="13.986" y="24">Domain event</tspan>
                </text>
            </g>
            <g id="Group" transform="translate(8.000000, 8.000000)">
                <g id="Rectangle">
                    <use fill="#D8D8D8" fill-rule="evenodd" xlink:href="#path-6"></use>
                    <rect stroke="#979797" stroke-width="1" x="0.5" y="0.5" width="101" height="40"></rect>
                </g>
                <text id="Domain-event" font-family="HelveticaNeue, Helvetica Neue" font-size="12" font-weight="normal" fill="#000000">
                    <tspan x="13.986" y="24">Domain event</tspan>
                </text>
            </g>
            <g id="Group" transform="translate(4.000000, 12.000000)">
                <g id="Rectangle">
                    <use fill="#D8D8D8" fill-rule="evenodd" xlink:href="#path-7"></use>
                    <rect stroke="#979797" stroke-width="1" x="0.5" y="0.5" width="101" height="40"></rect>
                </g>
                <text id="Domain-event" font-family="HelveticaNeue, Helvetica Neue" font-size="12" font-weight="normal" fill="#000000">
                    <tspan x="13.986" y="24">Domain event</tspan>
                </text>
            </g>
            <g id="Group" transform="translate(0.000000, 16.000000)">
                <g id="Rectangle">
                    <use fill="#D8D8D8" fill-rule="evenodd" xlink:href="#path-8"></use>
                    <rect stroke="#979797" stroke-width="1" x="0.5" y="0.5" width="101" height="40"></rect>
                </g>
                <text id="Domain-event" font-family="HelveticaNeue, Helvetica Neue" font-size="12" font-weight="normal" fill="#000000">
                    <tspan x="13.986" y="24">Domain event</tspan>
                </text>
            </g>
        </g>
        <g id="Command" filter="url(#filter-9)" transform="translate(175.000000, 236.000000)">
            <g id="Rectangle">
                <use fill="#D8D8D8" fill-rule="evenodd" xlink:href="#path-10"></use>
                <rect stroke="#979797" stroke-width="1" x="0.5" y="0.5" width="101" height="40"></rect>
            </g>
            <text font-family="HelveticaNeue, Helvetica Neue" font-size="12" font-weight="normal" fill="#000000">
                <tspan x="22.872" y="24">Command</tspan>
            </text>
        </g>
        <text id="CommandHandler" font-family="HelveticaNeue, Helvetica Neue" font-size="12" font-weight="normal" fill="#000000">
            <tspan x="184.872" y="363">CommandHandler</tspan>
        </text>
        <text id="Editor" font-family="HelveticaNeue, Helvetica Neue" font-size="12" font-weight="normal" fill="#000000">
            <tspan x="618.612" y="336">Editor</tspan>
        </text>
        <text id="Consume" font-family="HelveticaNeue, Helvetica Neue" font-size="12" font-weight="normal" fill="#000000">
            <tspan x="612.212" y="379">Consume</tspan>
        </text>
        <text id="…" transform="translate(622.500000, 410.500000) rotate(90.000000) translate(-622.500000, -410.500000) " font-family="Georgia" font-size="18" font-weight="normal" fill="#000000">
            <tspan x="615" y="417">…</tspan>
        </text>
        <text id="Internal-reporting" font-family="HelveticaNeue, Helvetica Neue" font-size="12" font-weight="normal" fill="#000000">
            <tspan x="615.22" y="446">Internal reporting</tspan>
        </text>
        <g id="Event-store" filter="url(#filter-11)" transform="translate(173.000000, 443.000000)">
            <g id="Rectangle-2">
                <use fill="#D8D8D8" fill-rule="evenodd" xlink:href="#path-12"></use>
                <path stroke="#979797" stroke-width="1" d="M101.5,59.0756159 L101.455511,59.2111597 C100.16693,63.137044 77.8150659,66.5 51,66.5 C24.1849341,66.5 1.83307007,63.137044 0.544489121,59.2111597 L0.5,59.0756159 L0.5,8.13291139 L101.5,8.13291139 L101.5,59.0756159 Z"></path>
            </g>
            <ellipse id="Oval" stroke="#979797" fill="#D8D8D8" cx="51" cy="8.05696203" rx="51" ry="8.05696203"></ellipse>
            <text font-family="HelveticaNeue, Helvetica Neue" font-size="12" font-weight="normal" fill="#000000">
                <tspan x="21.272" y="40">Event store</tspan>
            </text>
        </g>
        <g id="Group-2" transform="translate(773.000000, 272.500000)">
            <g id="Read-model" filter="url(#filter-13)" transform="translate(12.000000, 0.000000)">
                <g id="Rectangle-2">
                    <use fill="#D8D8D8" fill-rule="evenodd" xlink:href="#path-14"></use>
                    <path stroke="#979797" stroke-width="1" d="M101.5,59.0756159 L101.455511,59.2111597 C100.16693,63.137044 77.8150659,66.5 51,66.5 C24.1849341,66.5 1.83307007,63.137044 0.544489121,59.2111597 L0.5,59.0756159 L0.5,8.13291139 L101.5,8.13291139 L101.5,59.0756159 Z"></path>
                </g>
                <ellipse id="Oval" stroke="#979797" fill="#D8D8D8" cx="51" cy="8.05696203" rx="51" ry="8.05696203"></ellipse>
                <text font-family="HelveticaNeue, Helvetica Neue" font-size="12" font-weight="normal" fill="#000000">
                    <tspan x="18.546" y="40">Read model</tspan>
                </text>
            </g>
            <g id="Read-model" filter="url(#filter-15)" transform="translate(6.000000, 6.000000)">
                <g id="Rectangle-2">
                    <use fill="#D8D8D8" fill-rule="evenodd" xlink:href="#path-16"></use>
                    <path stroke="#979797" stroke-width="1" d="M101.5,59.0756159 L101.455511,59.2111597 C100.16693,63.137044 77.8150659,66.5 51,66.5 C24.1849341,66.5 1.83307007,63.137044 0.544489121,59.2111597 L0.5,59.0756159 L0.5,8.13291139 L101.5,8.13291139 L101.5,59.0756159 Z"></path>
                </g>
                <ellipse id="Oval" stroke="#979797" fill="#D8D8D8" cx="51" cy="8.05696203" rx="51" ry="8.05696203"></ellipse>
                <text font-family="HelveticaNeue, Helvetica Neue" font-size="12" font-weight="normal" fill="#000000">
                    <tspan x="18.546" y="40">Read model</tspan>
                </text>
            </g>
            <g id="Read-model" filter="url(#filter-17)" transform="translate(0.000000, 12.000000)">
                <g id="Rectangle-2">
                    <use fill="#D8D8D8" fill-rule="evenodd" xlink:href="#path-18"></use>
                    <path stroke="#979797" stroke-width="1" d="M101.5,59.0756159 L101.455511,59.2111597 C100.16693,63.137044 77.8150659,66.5 51,66.5 C24.1849341,66.5 1.83307007,63.137044 0.544489121,59.2111597 L0.5,59.0756159 L0.5,8.13291139 L101.5,8.13291139 L101.5,59.0756159 Z"></path>
                </g>
                <ellipse id="Oval" stroke="#979797" fill="#D8D8D8" cx="51" cy="8.05696203" rx="51" ry="8.05696203"></ellipse>
                <text font-family="HelveticaNeue, Helvetica Neue" font-size="12" font-weight="normal" fill="#000000">
                    <tspan x="18.546" y="40">Read model</tspan>
                </text>
            </g>
        </g>
        <g id="Line-+-Triangle" transform="translate(227.000000, 196.500000) rotate(90.000000) translate(-227.000000, -196.500000) translate(193.500000, 184.500000)" stroke="#A9A9A9" stroke-width="2">
            <path d="M-5.68434189e-14,12 L59.7259558,12" id="Line"></path>
            <path d="M59.765058,9.61803399 L64.5289901,12 L59.765058,14.381966 L59.765058,9.61803399 Z" id="Triangle"></path>
        </g>
        <g id="Line-+-Triangle" transform="translate(341.301851, 438.685366) rotate(343.000000) translate(-341.301851, -438.685366) translate(286.301851, 426.685366)" stroke="#A9A9A9" stroke-width="2">
            <path d="M-5.68434189e-14,12 L103.317302,12" id="Line"></path>
            <path d="M102.97989,9.61803399 L107.743822,12 L102.97989,14.381966 L102.97989,9.61803399 Z" id="Triangle"></path>
        </g>
        <g id="Line-+-Triangle" transform="translate(569.804346, 347.878154) rotate(339.000000) translate(-569.804346, -347.878154) translate(530.804346, 335.878154)" stroke="#A9A9A9" stroke-width="2">
            <path d="M-5.68434189e-14,12 L70.8971984,12" id="Line"></path>
            <path d="M70.7885581,9.61803399 L75.5524901,12 L70.7885581,14.381966 L70.7885581,9.61803399 Z" id="Triangle"></path>
        </g>
        <g id="Line-+-Triangle" transform="translate(711.280023, 317.828914) rotate(348.000000) translate(-711.280023, -317.828914) translate(664.780023, 305.828914)" stroke="#A9A9A9" stroke-width="2">
            <path d="M-5.68434189e-14,12 L85.3311093,12" id="Line"></path>
            <path d="M85.1282206,9.61803399 L89.8921526,12 L85.1282206,14.381966 L85.1282206,9.61803399 Z" id="Triangle"></path>
        </g>
        <g id="Line-+-Triangle" transform="translate(716.452154, 354.221794) rotate(336.000000) translate(-716.452154, -354.221794) translate(671.452154, 342.221794)" stroke="#A9A9A9" stroke-width="2">
            <path d="M-5.68434189e-14,12 L82.6761387,12" id="Line"></path>
            <path d="M82.3712142,9.61803399 L87.1351463,12 L82.3712142,14.381966 L82.3712142,9.61803399 Z" id="Triangle"></path>
        </g>
        <g id="Line-+-Triangle" transform="translate(746.032684, 394.424657) rotate(303.000000) translate(-746.032684, -394.424657) translate(702.032684, 382.424657)" stroke="#A9A9A9" stroke-width="2">
            <path d="M-5.68434189e-14,12 L80.6761387,12" id="Line"></path>
            <path d="M80.3865505,9.61803399 L85.1504825,12 L80.3865505,14.381966 L80.3865505,9.61803399 Z" id="Triangle"></path>
        </g>
        <g id="Line-+-Triangle" transform="translate(570.456837, 428.209655) rotate(378.000000) translate(-570.456837, -428.209655) translate(531.456837, 416.209655)" stroke="#A9A9A9" stroke-width="2">
            <path d="M-5.68434189e-14,12 L70.8971984,12" id="Line"></path>
            <path d="M70.7885581,9.61803399 L75.5524901,12 L70.7885581,14.381966 L70.7885581,9.61803399 Z" id="Triangle"></path>
        </g>
        <g id="Line-+-Triangle" transform="translate(570.210890, 375.275303) rotate(359.000000) translate(-570.210890, -375.275303) translate(535.710890, 363.275303)" stroke="#A9A9A9" stroke-width="2">
            <path d="M-5.68434189e-14,12 L61.1861195,12" id="Line"></path>
            <path d="M61.0827809,9.61803399 L65.8467129,12 L61.0827809,14.381966 L61.0827809,9.61803399 Z" id="Triangle"></path>
        </g>
        <g id="Line-+-Triangle" transform="translate(227.022225, 316.900823) rotate(90.000000) translate(-227.022225, -316.900823) translate(197.522225, 304.900823)" stroke="#A9A9A9" stroke-width="2">
            <path d="M-5.68434189e-14,12 L51.4201964,12" id="Line"></path>
            <path d="M51.3703883,9.61803399 L56.1343203,12 L51.3703883,14.381966 L51.3703883,9.61803399 Z" id="Triangle"></path>
        </g>
        <g id="Group-4" transform="translate(227.000000, 405.000000) scale(-1, 1) translate(-227.000000, -405.000000) translate(188.000000, 376.000000)" stroke="#A9A9A9" stroke-width="2">
            <g id="Curved-Line-+-Triangle" transform="translate(23.990381, 30.552559) rotate(60.000000) translate(-23.990381, -30.552559) translate(1.990381, 15.552559)">
                <path d="M0,0 C0,27.6176471 37,25.9930796 37,25.9930796" id="Line"></path>
                <path d="M37,23.618034 L41.763932,26 L37,28.381966 L37,23.618034 Z" id="Triangle"></path>
            </g>
            <g id="Curved-Line-+-Triangle" transform="translate(53.122365, 26.841835) rotate(238.000000) translate(-53.122365, -26.841835) translate(31.122365, 11.841835)">
                <path d="M0,0 C0,27.6176471 37,25.9930796 37,25.9930796" id="Line"></path>
                <path d="M37,23.618034 L41.763932,26 L37,28.381966 L37,23.618034 Z" id="Triangle"></path>
            </g>
        </g>
        <text id="Rails-controller" font-family="HelveticaNeue, Helvetica Neue" font-size="12" font-weight="normal" fill="#000000">
            <tspan x="188.726" y="152.365557">Rails controller</tspan>
        </text>
        <g id="Path-2">
            <use fill="black" fill-opacity="1" filter="url(#filter-20)" xlink:href="#path-19"></use>
            <use stroke="#979797" stroke-width="1" fill="#D8D8D8" fill-rule="evenodd" xlink:href="#path-19"></use>
        </g>
        <g id="Group-4" transform="translate(189.000000, 80.365557)" stroke="#A9A9A9" stroke-width="2">
            <g id="Curved-Line-+-Triangle" transform="translate(23.990381, 30.552559) rotate(60.000000) translate(-23.990381, -30.552559) translate(1.990381, 15.552559)">
                <path d="M0,0 C0,27.6176471 37,25.9930796 37,25.9930796" id="Line"></path>
                <path d="M37,23.618034 L41.763932,26 L37,28.381966 L37,23.618034 Z" id="Triangle"></path>
            </g>
            <g id="Curved-Line-+-Triangle" transform="translate(53.122365, 26.841835) rotate(238.000000) translate(-53.122365, -26.841835) translate(31.122365, 11.841835)">
                <path d="M0,0 C0,27.6176471 37,25.9930796 37,25.9930796" id="Line"></path>
                <path d="M37,23.618034 L41.763932,26 L37,28.381966 L37,23.618034 Z" id="Triangle"></path>
            </g>
        </g>
        <text id="Rails-controller" font-family="HelveticaNeue, Helvetica Neue" font-size="12" font-weight="normal" fill="#000000">
            <tspan x="676.726" y="162">Rails controller</tspan>
        </text>
        <g id="Path-2">
            <use fill="black" fill-opacity="1" filter="url(#filter-22)" xlink:href="#path-21"></use>
            <use stroke="#979797" stroke-width="1" fill="#D8D8D8" fill-rule="evenodd" xlink:href="#path-21"></use>
        </g>
        <g id="Group-4" transform="translate(677.000000, 90.000000)" stroke="#A9A9A9" stroke-width="2">
            <g id="Curved-Line-+-Triangle" transform="translate(23.990381, 30.552559) rotate(60.000000) translate(-23.990381, -30.552559) translate(1.990381, 15.552559)">
                <path d="M0,0 C0,27.6176471 37,25.9930796 37,25.9930796" id="Line"></path>
                <path d="M37,23.618034 L41.763932,26 L37,28.381966 L37,23.618034 Z" id="Triangle"></path>
            </g>
            <g id="Curved-Line-+-Triangle" transform="translate(53.122365, 26.841835) rotate(238.000000) translate(-53.122365, -26.841835) translate(31.122365, 11.841835)">
                <path d="M0,0 C0,27.6176471 37,25.9930796 37,25.9930796" id="Line"></path>
                <path d="M37,23.618034 L41.763932,26 L37,28.381966 L37,23.618034 Z" id="Triangle"></path>
            </g>
        </g>
        <g id="Group-4" transform="translate(755.434090, 223.527023) rotate(-39.000000) translate(-755.434090, -223.527023) translate(690.934090, 173.527023)" stroke="#A9A9A9" stroke-width="2">
            <g id="Curved-Line-+-Triangle" transform="translate(50.753821, 50.137662) rotate(60.000000) translate(-50.753821, -50.137662) translate(15.253821, 13.137662)">
                <path d="M0,0 C0,74.2875826 63.5935778,69.9177248 63.5935778,69.9177248" id="Line"></path>
                <path d="M63.5935778,67.4347782 L68.3575099,69.8167442 L63.5935778,72.1987102 L63.5935778,67.4347782 Z" id="Triangle"></path>
            </g>
            <g id="Curved-Line-+-Triangle" transform="translate(82.556380, 55.614281) rotate(238.000000) translate(-82.556380, -55.614281) translate(53.056380, 19.614281)">
                <path d="M0,0 C0,72.5155304 51.294355,68.249911 51.294355,68.249911" id="Line"></path>
                <path d="M51.4504041,65.6018493 L56.2143362,67.9838153 L51.4504041,70.3657813 L51.4504041,65.6018493 Z" id="Triangle"></path>
            </g>
        </g>
        <g id="Group-4" transform="translate(143.593026, 358.973217) rotate(90.000000) translate(-143.593026, -358.973217) translate(104.593026, 329.973217)" stroke="#A9A9A9" stroke-width="2">
            <g id="Curved-Line-+-Triangle" transform="translate(23.990381, 30.552559) rotate(60.000000) translate(-23.990381, -30.552559) translate(1.990381, 15.552559)">
                <path d="M0,0 C0,27.6176471 37,25.9930796 37,25.9930796" id="Line"></path>
                <path d="M37,23.618034 L41.763932,26 L37,28.381966 L37,23.618034 Z" id="Triangle"></path>
            </g>
            <g id="Curved-Line-+-Triangle" transform="translate(53.122365, 26.841835) rotate(238.000000) translate(-53.122365, -26.841835) translate(31.122365, 11.841835)">
                <path d="M0,0 C0,27.6176471 37,25.9930796 37,25.9930796" id="Line"></path>
                <path d="M37,23.618034 L41.763932,26 L37,28.381966 L37,23.618034 Z" id="Triangle"></path>
            </g>
        </g>
        <text id="1" font-family="HelveticaNeue, Helvetica Neue" font-size="12" font-weight="normal" fill="#A9A9A9">
            <tspan x="240" y="317">1</tspan>
        </text>
        <text id="2" font-family="HelveticaNeue, Helvetica Neue" font-size="12" font-weight="normal" fill="#A9A9A9">
            <tspan x="188" y="410">2</tspan>
        </text>
        <text id="3" font-family="HelveticaNeue, Helvetica Neue" font-size="12" font-weight="normal" fill="#A9A9A9">
            <tspan x="140" y="328">3</tspan>
        </text>
        <text id="4" font-family="HelveticaNeue, Helvetica Neue" font-size="12" font-weight="normal" fill="#A9A9A9">
            <tspan x="138" y="398">4</tspan>
        </text>
        <text id="5" font-family="HelveticaNeue, Helvetica Neue" font-size="12" font-weight="normal" fill="#A9A9A9">
            <tspan x="262" y="406">5</tspan>
        </text>
        <text id="6" font-family="HelveticaNeue, Helvetica Neue" font-size="12" font-weight="normal" fill="#A9A9A9">
            <tspan x="330" y="426">6</tspan>
        </text>
    </g>
</svg>
